<svg xmlns:dc="http://purl.org/dc/elements/1.1/" xmlns:cc="http://creativecommons.org/ns#" xmlns:rdf="http://www.w3.org/1999/02/22-rdf-syntax-ns#" xmlns:svg="http://www.w3.org/2000/svg" xmlns="http://www.w3.org/2000/svg" xmlns:xlink="http://www.w3.org/1999/xlink" id="svg131774" viewBox="0 0 1024 768" height="768px" width="1024px" version="1.1">
  <metadata id="metadata131780">
    <rdf:rdf>
      <cc:work rdf:about="">
        <dc:format>image/svg+xml</dc:format>
        <dc:type rdf:resource="http://purl.org/dc/dcmitype/StillImage"></dc:type>
      </cc:work>
    </rdf:rdf>
  </metadata>
  <defs id="defs131778"></defs>
  <linearGradient spreadMethod="pad" y2="30%" x2="-10%" y1="120%" x1="30%" id="3d_gradient2-logo-60c8e173-8bae-468d-aae5-1e22ba540bf7">
    <stop id="stop131755" stop-opacity="1" stop-color="#ffffff" offset="0%"></stop>
    <stop id="stop131757" stop-opacity="1" stop-color="#000000" offset="100%"></stop>
  </linearGradient>
  <linearGradient gradientTransform="rotate(-30)" spreadMethod="pad" y2="30%" x2="-10%" y1="120%" x1="30%" id="3d_gradient3-logo-60c8e173-8bae-468d-aae5-1e22ba540bf7">
    <stop id="stop131760" stop-opacity="1" stop-color="#ffffff" offset="0%"></stop>
    <stop id="stop131762" stop-opacity="1" stop-color="#cccccc" offset="50%"></stop>
    <stop id="stop131764" stop-opacity="1" stop-color="#000000" offset="100%"></stop>
  </linearGradient>
  <g id="logo-group">
    <image xlink:href="" id="container" x="272" y="144" width="480" height="480" style="display: none;" transform="translate(0 0)"></image>
    <g id="logo-center" transform="translate(0 0)">
      <image xlink:href="" id="icon_container" style="display: none;"></image>
      <g id="slogan" style="font-style:normal;font-weight:400;font-size:32px;line-height:1;font-family:Roboto;font-variant-ligatures:none;text-align:center;text-anchor:middle" transform="translate(0 0)"></g>
      <g id="title" style="font-style:normal;font-weight:normal;font-size:72px;line-height:1;font-family:'Brandmark Sans 16 Color Shadow';font-variant-ligatures:normal;text-align:center;text-anchor:middle" transform="translate(0 0)">
        <g id="path131783" aria-label="K" transform="translate(0 325.02412000000004) translate(253.01801322000006 16.952000000000005) scale(1.67) translate(-356.91425 50.4)"> <path class="c1" d="M124.1,74.8l-16.9,24.7l12.3,25.7H103l-5.3-11.5l-0.6-1.4l-4.7-10.2l-2.1,23.1H75.9l4.5-50.4h14.4l-2,21.9 l7.7-11.3l7.2-10.6C107.7,74.8,124.1,74.8,124.1,74.8z" transform="translate(281.01425 -125.2)" stroke-width="0" stroke-linejoin="miter" stroke-miterlimit="2" fill="#3c535d" stroke="#3c535d"></path> <linearGradient id="fc71d20f-0c34-4d7c-8f28-7f9f0eb8e1af" gradientUnits="userSpaceOnUse" x1="92.3248" y1="-496" x2="124.12479" y2="-496" gradientTransform="matrix(1 0 0 -1 0 -396)"> <stop offset="0.09073" style="stop-color:#000000;stop-opacity:0.8"></stop> <stop offset="0.3494" style="stop-color:#000000;stop-opacity:0"></stop> </linearGradient> <path class="highlight" fill="url(#fc71d20f-0c34-4d7c-8f28-7f9f0eb8e1af)" d="M107.3,99.5l12.3,25.7H103l-5.3-11.5l-0.6-1.4l-4.7-10.2l0.5-5.4l7.7-11.3l7.2-10.6h16.4L107.3,99.5 z" transform="translate(281.01425 -125.2)" stroke-width="0" stroke-linejoin="miter" stroke-miterlimit="2" opacity="0.59"></path> </g>
        <g id="path131785" aria-label="O" transform="translate(0 325.02412000000004) translate(325.4334049200001 15.749600000000008) scale(1.67) translate(-400.27676 51.12)"> <path class="c1" d="M102.3,74.1c-14.7,0-27.6,11.6-28.9,25.9c-0.1,0.7-0.1,1.3-0.1,2l0,0l0,0c-0.1,13.4,10.4,23.9,24.5,23.9 c14.7,0,27.6-11.6,28.9-25.9C127.9,85.7,117,74.1,102.3,74.1z M111.9,100c-0.7,8.3-6.7,15.1-13.3,15.1c-6.2,0-10.7-5.9-10.7-13.5 l0,0c0-0.1,0-0.3,0-0.4s0-0.1,0-0.2c0-0.3,0-0.7,0.1-1.1l0,0c0.7-8.3,6.7-15.1,13.3-15.1S112.6,91.7,111.9,100z" transform="translate(326.977468 -125.22)" stroke-width="0" stroke-linejoin="miter" stroke-miterlimit="2" fill="#3c535d" stroke="#3c535d"></path> <linearGradient id="245c7501-2f06-4c94-af21-119164d3d2e6" gradientUnits="userSpaceOnUse" x1="87.3" y1="-480.38568" x2="87.3" y2="-497.56622" gradientTransform="matrix(1 0 0 -1 0 -396)"> <stop offset="0.1417" style="stop-color:#000000;stop-opacity:0.8"></stop> <stop offset="0.4769" style="stop-color:#000000;stop-opacity:0.4202"></stop> <stop offset="0.9802" style="stop-color:#000000;stop-opacity:0"></stop> </linearGradient> <path class="highlight" fill="url(#245c7501-2f06-4c94-af21-119164d3d2e6)" d="M87.9,101.7L73.3,102v-0.1c1-10.3,11.3-21.2,28-17l0,0c-6.6,0-12.5,6.8-13.3,15.1 c0,0.4,0,0.7-0.1,1.1c0,0.1,0,0.1,0,0.2C87.9,101.4,87.9,101.5,87.9,101.7C87.9,101.6,87.9,101.7,87.9,101.7z" transform="translate(326.977468 -125.22)" stroke-width="0" stroke-linejoin="miter" stroke-miterlimit="2" opacity="0.59"></path> </g>
        <g id="path131787" aria-label="K" transform="translate(0 325.02412000000004) translate(418.11316112000003 16.952000000000005) scale(1.67) translate(-455.77362 50.4)"> <path class="c1" d="M124.1,74.8l-16.9,24.7l12.3,25.7H103l-5.3-11.5l-0.6-1.4l-4.7-10.2l-2.1,23.1H75.9l4.5-50.4h14.4l-2,21.9 l7.7-11.3l7.2-10.6C107.7,74.8,124.1,74.8,124.1,74.8z" transform="translate(379.87362 -125.2)" stroke-width="0" stroke-linejoin="miter" stroke-miterlimit="2" fill="#3c535d" stroke="#3c535d"></path> <linearGradient id="2008b546-07be-419f-8ac6-1b0b5a7d149a" gradientUnits="userSpaceOnUse" x1="92.3248" y1="-496" x2="124.12479" y2="-496" gradientTransform="matrix(1 0 0 -1 0 -396)"> <stop offset="0.09073" style="stop-color:#000000;stop-opacity:0.8"></stop> <stop offset="0.3494" style="stop-color:#000000;stop-opacity:0"></stop> </linearGradient> <path class="highlight" fill="url(#2008b546-07be-419f-8ac6-1b0b5a7d149a)" d="M107.3,99.5l12.3,25.7H103l-5.3-11.5l-0.6-1.4l-4.7-10.2l0.5-5.4l7.7-11.3l7.2-10.6h16.4L107.3,99.5 z" transform="translate(379.87362 -125.2)" stroke-width="0" stroke-linejoin="miter" stroke-miterlimit="2" opacity="0.59"></path> </g>
        <g id="path131789" aria-label="O" transform="translate(0 325.02412000000004) translate(490.52855282 15.749600000000008) scale(1.67) translate(-499.13613 51.12)"> <path class="c1" d="M102.3,74.1c-14.7,0-27.6,11.6-28.9,25.9c-0.1,0.7-0.1,1.3-0.1,2l0,0l0,0c-0.1,13.4,10.4,23.9,24.5,23.9 c14.7,0,27.6-11.6,28.9-25.9C127.9,85.7,117,74.1,102.3,74.1z M111.9,100c-0.7,8.3-6.7,15.1-13.3,15.1c-6.2,0-10.7-5.9-10.7-13.5 l0,0c0-0.1,0-0.3,0-0.4s0-0.1,0-0.2c0-0.3,0-0.7,0.1-1.1l0,0c0.7-8.3,6.7-15.1,13.3-15.1S112.6,91.7,111.9,100z" transform="translate(425.836838 -125.22)" stroke-width="0" stroke-linejoin="miter" stroke-miterlimit="2" fill="#3c535d" stroke="#3c535d"></path> <linearGradient id="5d48329f-eb57-438f-bb2d-f03f60d0089e" gradientUnits="userSpaceOnUse" x1="87.3" y1="-480.38568" x2="87.3" y2="-497.56622" gradientTransform="matrix(1 0 0 -1 0 -396)"> <stop offset="0.1417" style="stop-color:#000000;stop-opacity:0.8"></stop> <stop offset="0.4769" style="stop-color:#000000;stop-opacity:0.4202"></stop> <stop offset="0.9802" style="stop-color:#000000;stop-opacity:0"></stop> </linearGradient> <path class="highlight" fill="url(#5d48329f-eb57-438f-bb2d-f03f60d0089e)" d="M87.9,101.7L73.3,102v-0.1c1-10.3,11.3-21.2,28-17l0,0c-6.6,0-12.5,6.8-13.3,15.1 c0,0.4,0,0.7-0.1,1.1c0,0.1,0,0.1,0,0.2C87.9,101.4,87.9,101.5,87.9,101.7C87.9,101.6,87.9,101.7,87.9,101.7z" transform="translate(425.836838 -125.22)" stroke-width="0" stroke-linejoin="miter" stroke-miterlimit="2" opacity="0.59"></path> </g>
        <g id="path131791" aria-label="M" transform="translate(0 325.02412000000004) translate(583.2083257200001 16.952000000000005) scale(1.67) translate(-554.633 50.4)"> <path class="c1" d="M117.4,74.8h11.1l-4.5,50.4h-14.4l2.9-32.9l-9.2,32.9h-7h-3.8l-3.6-33l-3,33H71.5L76,74.8h11h3.5h7.9 l3.1,31.9l8.9-31.9h3.7H117.4z" transform="translate(483.133 -125.2)" stroke-width="0" stroke-linejoin="miter" stroke-miterlimit="2" fill="#3c535d" stroke="#3c535d"></path> <linearGradient id="31527e5a-0b70-49d5-b88e-18ef00dd9b1f" gradientUnits="userSpaceOnUse" x1="88.24332" y1="-495.36948" x2="105.42491" y2="-496.87271" gradientTransform="matrix(1 0 0 -1 0 -396)"> <stop offset="0.0655" style="stop-color:#000000;stop-opacity:0.8"></stop> <stop offset="0.4267" style="stop-color:#000000;stop-opacity:0"></stop> </linearGradient> <path class="highlight" fill="url(#31527e5a-0b70-49d5-b88e-18ef00dd9b1f)" d="M103.3,125.2H92.5l-3.6-33l1.6-17.4h7.9L103.3,125.2z" transform="translate(483.133 -125.2)" stroke-width="0" stroke-linejoin="miter" stroke-miterlimit="2" opacity="0.59"></path> </g>
        <g id="path131793" aria-label="O" transform="translate(0 325.02412000000004) translate(681.6913653199999 15.749600000000008) scale(1.67) translate(-613.60488 51.12)"> <path class="c1" d="M102.3,74.1c-14.7,0-27.6,11.6-28.9,25.9c-0.1,0.7-0.1,1.3-0.1,2l0,0l0,0c-0.1,13.4,10.4,23.9,24.5,23.9 c14.7,0,27.6-11.6,28.9-25.9C127.9,85.7,117,74.1,102.3,74.1z M111.9,100c-0.7,8.3-6.7,15.1-13.3,15.1c-6.2,0-10.7-5.9-10.7-13.5 l0,0c0-0.1,0-0.3,0-0.4s0-0.1,0-0.2c0-0.3,0-0.7,0.1-1.1l0,0c0.7-8.3,6.7-15.1,13.3-15.1S112.6,91.7,111.9,100z" transform="translate(540.305588 -125.22)" stroke-width="0" stroke-linejoin="miter" stroke-miterlimit="2" fill="#3c535d" stroke="#3c535d"></path> <linearGradient id="416739b4-7449-4a3f-9c20-71898807f92f" gradientUnits="userSpaceOnUse" x1="87.3" y1="-480.38568" x2="87.3" y2="-497.56622" gradientTransform="matrix(1 0 0 -1 0 -396)"> <stop offset="0.1417" style="stop-color:#000000;stop-opacity:0.8"></stop> <stop offset="0.4769" style="stop-color:#000000;stop-opacity:0.4202"></stop> <stop offset="0.9802" style="stop-color:#000000;stop-opacity:0"></stop> </linearGradient> <path class="highlight" fill="url(#416739b4-7449-4a3f-9c20-71898807f92f)" d="M87.9,101.7L73.3,102v-0.1c1-10.3,11.3-21.2,28-17l0,0c-6.6,0-12.5,6.8-13.3,15.1 c0,0.4,0,0.7-0.1,1.1c0,0.1,0,0.1,0,0.2C87.9,101.4,87.9,101.5,87.9,101.7C87.9,101.6,87.9,101.7,87.9,101.7z" transform="translate(540.305588 -125.22)" stroke-width="0" stroke-linejoin="miter" stroke-miterlimit="2" opacity="0.59"></path> </g>
            </g>
      <image xlink:href="" id="icon" style="display: none;" x="0" y="0"></image>
    </g>
  </g>
</svg>